<?xml version="1.0" standalone="no"?>
<!DOCTYPE svg PUBLIC "-//W3C//DTD SVG 20010904//EN" "http://www.w3.org/TR/2001/REC-SVG-20010904/DTD/svg10.dtd">

<svg version="1.0"
xmlns="http://www.w3.org/2000/svg"
width="100%"
height="100%"
viewBox="0 0 1536 1024"
preserveAspectRatio="xMidYMid meet">

  <g transform="translate(0,1024) scale(1,-1)"
     fill="#0000FF"
     stroke="none">

    <path d="M7550 7326 c-96 -18 -176 -47 -259 -92 -65 -36 -169 -113 -204 -152 -16 -17 -23 -19 -55 -10 -22 6 -87 8 -157 5 -192 -9 -343 -69 -466 -185 -151 -141 -231 -344 -214 -537 l6 -70 -108 -52 c-178 -85 -366 -243 -445 -375 -43 -71 -50 -121 -18 -138 38 -20 74 2 200 125 169 166 303 249 490 306 38 11 70 26 70 32 -1 7 -7 41 -15 77 -17 75 -19 206 -5 267 39 170 192 320 376 368 100 26 270 17 364 -20 11 -4 30 11 59 47 136 168 314 251 536 251 199 1 343 -60 488 -205 l88 -89 87 17 c210 40 424 -23 550 -161 25 -27 61 -83 80 -123 31 -65 36 -86 40 -173 4 -86 -3 -153 -24 -245 -5 -19 4 -24 78 -49 185 -61 378 -186 497 -324 67 -77 105 -104 144 -103 105 3 53 137 -118 300 -94 91 -184 154 -320 222 l-89 45 3 90 c5 187 -48 334 -176 478 -71 81 -207 162 -320 191 -88 23 -248 37 -317 29 -59 -8 -59 -8 -100 30 -107 100 -229 168 -367 207 -96 26 -279 34 -379 16z"/>

    <path d="M6880 5648 c-249 -127 -367 -125 -444 10 l-30 52 -81 0 c-188 -1 -445 -52 -705 -142 -96 -33 -223 -76 -282 -96 -123 -40 -121 -36 -85 -135 77 -212 246 -366 462 -422 33 -8 104 -18 158 -22 l99 -6 -7 -26 c-16 -66 -17 -237 -1 -311 31 -146 119 -274 240 -350 56 -35 56 -35 51 -75 -3 -22 -6 -88 -6 -146 0 -90 4 -120 26 -185 15 -44 38 -101 53 -128 35 -64 147 -176 214 -214 61 -34 174 -76 233 -86 36 -7 45 -14 88 -81 104 -159 255 -291 432 -376 148 -72 242 -93 400 -93 180 0 285 26 459 117 146 76 287 202 382 343 l56 81 81 22 c133 36 222 84 303 165 137 137 195 314 174 525 -9 78 -8 96 4 103 7 4 41 29 75 54 102 77 177 193 202 314 12 56 8 300 -5 331 -6 14 8 17 106 22 133 7 164 15 283 72 152 73 257 189 325 357 40 101 39 114 -5 122 -19 4 -90 27 -158 52 -439 163 -577 197 -848 210 l-136 7 -12 -33 c-17 -50 -59 -100 -97 -116 -80 -33 -176 -12 -361 81 l-141 72 -17 -66 c-53 -214 -210 -369 -445 -443 -65 -20 -95 -23 -220 -22 -129 0 -154 3 -225 27 -173 58 -322 180 -389 319 -20 42 -42 102 -48 132 -7 31 -15 55 -18 55 -3 -1 -66 -33 -140 -71z"/>

    <path d="M6791 4936 c-18 -6 -44 -24 -56 -38 -20 -24 -22 -32 -14 -68 10 -46 43 -115 59 -125 5 -3 24 2 42 11 23 12 47 15 91 11 66 -6 108 -29 181 -101 39 -39 50 -45 66 -36 25 13 33 43 25 88 -34 183 -236 315 -394 258z"/>

    <path d="M8447 4936 c-47 -17 -107 -56 -142 -93 -64 -66 -107 -209 -75 -248 20 -24 36 -18 76 25 67 72 119 100 186 100 32 0 74 -6 93 -14 30 -13 35 -13 48 2 20 22 57 117 57 146 0 31 -39 65 -95 82 -59 17 -98 17 -148 0z"/>

    <path d="M7362 3958 c-13 -13 -16 -47 -4 -65 12 -18 59 -33 108 -33 56 0 108 -21 126 -52 9 -16 13 -63 13 -150 0 -123 1 -128 26 -153 37 -37 86 -42 129 -13 48 33 65 85 51 157 -30 150 0 195 135 210 41 5 81 14 89 21 24 20 28 50 9 71 -14 15 -30 19 -88 18 -39 0 -93 -4 -121 -10 -107 -20 -161 -21 -244 -5 -99 19 -212 21 -229 4z"/>

  </g>
</svg>